<svg xmlns="http://www.w3.org/2000/svg" fill="none" viewBox="0 0 24 24" id="Personal-Training--Streamline-Guidance---Free.svg"><desc>Personal Training Streamline Icon: https://streamlinehq.com</desc><path stroke="#000000" d="M17.04 13.4141C16.7213 13.3703 16.4011 13.3386 16.08 13.319C14.4894 13.319 13.2 14.6084 13.2 16.199V17.159H17.6899C18.5266 17.1586 19.1343 16.3633 18.9149 15.5558L17.52 10.3776M6.96 20.039H23.28M6.96 22.919C6 22.919 5.28 21.479 5.28 21.479C4.56 20.039 4.56 19.079 4.56 17.639V16.679L0.72 13.559V13.319L2.4374 8.5104C2.8468 7.3643 3.9324 6.5991 5.1494 6.599H6.48V9.9072C6.4797 11.0556 7.7227 11.7737 8.7174 11.1998C8.7327 11.191 8.7479 11.1819 8.7629 11.1725L12.24 8.999M0.72 23.159S2.16 20.519 2.16 17.159M23.136 14.1658C21.9795 14.0305 20.8237 13.8901 19.6685 13.7443L23.136 14.1658ZM11.28 15.623S10.32 17.159 9.12 17.159C8.1921 17.1591 7.44 16.4069 7.44 15.479C7.44 14.5517 8.1917 13.8029 9.12 13.8029C10.32 13.8029 11.28 15.335 11.28 15.335V15.623ZM17.04 10.439C15.562 10.439 14.6382 8.839 15.3772 7.559C15.7202 6.965 16.3541 6.599 17.04 6.599C18.518 6.599 19.4418 8.199 18.7028 9.479C18.3598 10.0731 17.7259 10.439 17.04 10.439ZM7.056 4.679S5.52 3.719 5.52 2.519C5.52 1.2273 6.9184 0.4199 8.0371 1.0658C8.5563 1.3655 8.8762 1.9195 8.8762 2.519C8.8762 3.719 7.344 4.679 7.344 4.679H7.056Z" stroke-width="1"></path></svg>